<?xml version="1.0" encoding="UTF-8" standalone="no"?>
<svg
   xmlns:dc="http://purl.org/dc/elements/1.1/"
   xmlns:cc="http://creativecommons.org/ns#"
   xmlns:rdf="http://www.w3.org/1999/02/22-rdf-syntax-ns#"
   xmlns:svg="http://www.w3.org/2000/svg"
   xmlns="http://www.w3.org/2000/svg"
   xmlns:sodipodi="http://sodipodi.sourceforge.net/DTD/sodipodi-0.dtd"
   xmlns:inkscape="http://www.inkscape.org/namespaces/inkscape"
   width="103.66172mm"
   height="89.094574mm"
   viewBox="0 0 103.66172 89.094574"
   version="1.1"
   id="svg1139"
   inkscape:version="1.0.1 (3bc2e813f5, 2020-09-07)"
   sodipodi:docname="tri_grid_unlabelled.svg">
  <defs
     id="defs1133" />
  <sodipodi:namedview
     id="base"
     pagecolor="#ffffff"
     bordercolor="#666666"
     borderopacity="1.0"
     inkscape:pageopacity="0.0"
     inkscape:pageshadow="2"
     inkscape:zoom="2.8"
     inkscape:cx="266.8198"
     inkscape:cy="36.95238"
     inkscape:document-units="mm"
     inkscape:current-layer="layer1"
     inkscape:document-rotation="0"
     showgrid="false"
     inkscape:window-width="3840"
     inkscape:window-height="2066"
     inkscape:window-x="2869"
     inkscape:window-y="-11"
     inkscape:window-maximized="1" />
  <metadata
     id="metadata1136">
    <rdf:RDF>
      <cc:Work
         rdf:about="">
        <dc:format>image/svg+xml</dc:format>
        <dc:type
           rdf:resource="http://purl.org/dc/dcmitype/StillImage" />
        <dc:title />
      </cc:Work>
    </rdf:RDF>
  </metadata>
  <g
     inkscape:label="Layer 1"
     inkscape:groupmode="layer"
     id="layer1"
     transform="translate(-58.296796,-135.32575)">
    <polygon
       points="-3,1.7320508 -4,0 -2,0 "
       style="fill:#f4f4f1;stroke:#333333;stroke-width:0.1;stroke-linejoin:round"
       id="polygon2"
       transform="matrix(10.263544,0,0,10.170324,110.12766,188.68077)" />
    <polygon
       points="-4,0 -3,1.7320508 -5,1.7320508 "
       style="fill:#f4f4f1;stroke:#333333;stroke-width:0.1;stroke-linejoin:round"
       id="polygon12"
       transform="matrix(10.263544,0,0,10.170324,110.12766,188.68077)" />
    <polygon
       points="-2,0 -3,-1.7320508 -1,-1.7320508 "
       style="fill:#f4f4f1;stroke:#333333;stroke-width:0.1;stroke-linejoin:round"
       id="polygon22"
       transform="matrix(10.263544,0,0,10.170324,110.12766,188.68077)" />
    <polygon
       points="-3,-1.7320508 -2,0 -4,0 "
       style="fill:#f4f4f1;stroke:#333333;stroke-width:0.1;stroke-linejoin:round"
       id="polygon32"
       transform="matrix(10.263544,0,0,10.170324,110.12766,188.68077)" />
    <polygon
       points="-1,-1.7320508 -2,-3.4641016 0,-3.4641016 "
       style="fill:#f4f4f1;stroke:#333333;stroke-width:0.1;stroke-linejoin:round"
       id="polygon42"
       transform="matrix(10.263544,0,0,10.170324,110.12766,188.68077)" />
    <polygon
       points="-2,-3.4641016 -1,-1.7320508 -3,-1.7320508 "
       style="fill:#f4f4f1;stroke:#333333;stroke-width:0.1;stroke-linejoin:round"
       id="polygon52"
       transform="matrix(10.263544,0,0,10.170324,110.12766,188.68077)" />
    <polygon
       points="-1,-5.1961524 0,-3.4641016 -2,-3.4641016 "
       style="fill:#f4f4f1;stroke:#333333;stroke-width:0.1;stroke-linejoin:round"
       id="polygon62"
       transform="matrix(10.263544,0,0,10.170324,110.12766,188.68077)" />
    <polygon
       points="-2,3.4641016 -3,1.7320508 -1,1.7320508 "
       style="fill:#f4f4f1;stroke:#333333;stroke-width:0.1;stroke-linejoin:round"
       id="polygon72"
       transform="matrix(10.263544,0,0,10.170324,110.12766,188.68077)" />
    <polygon
       points="-3,1.7320508 -2,3.4641016 -4,3.4641016 "
       style="fill:#f4f4f1;stroke:#333333;stroke-width:0.1;stroke-linejoin:round"
       id="polygon82"
       transform="matrix(10.263544,0,0,10.170324,110.12766,188.68077)" />
    <polygon
       points="-1,1.7320508 -2,0 0,0 "
       style="fill:#f4f4f1;stroke:#333333;stroke-width:0.1;stroke-linejoin:round"
       id="polygon92"
       transform="matrix(10.263544,0,0,10.170324,110.12766,188.68077)" />
    <polygon
       points="-2,0 -1,1.7320508 -3,1.7320508 "
       style="fill:#f4f4f1;stroke:#333333;stroke-width:0.1;stroke-linejoin:round"
       id="polygon102"
       transform="matrix(10.263544,0,0,10.170324,110.12766,188.68077)" />
    <polygon
       points="0,0 -1,-1.7320508 1,-1.7320508 "
       style="fill:#f4f4f1;stroke:#333333;stroke-width:0.1;stroke-linejoin:round"
       id="polygon112"
       transform="matrix(10.263544,0,0,10.170324,110.12766,188.68077)" />
    <polygon
       points="-1,-1.7320508 0,0 -2,0 "
       style="fill:#f4f4f1;stroke:#333333;stroke-width:0.1;stroke-linejoin:round"
       id="polygon122"
       transform="matrix(10.263544,0,0,10.170324,110.12766,188.68077)" />
    <polygon
       points="1,-1.7320508 0,-3.4641016 2,-3.4641016 "
       style="fill:#f4f4f1;stroke:#333333;stroke-width:0.1;stroke-linejoin:round"
       id="polygon132"
       transform="matrix(10.263544,0,0,10.170324,110.12766,188.68077)" />
    <polygon
       points="0,-3.4641016 1,-1.7320508 -1,-1.7320508 "
       style="fill:#f4f4f1;stroke:#333333;stroke-width:0.1;stroke-linejoin:round"
       id="polygon142"
       transform="matrix(10.263544,0,0,10.170324,110.12766,188.68077)" />
    <polygon
       points="1,-5.1961524 2,-3.4641016 0,-3.4641016 "
       style="fill:#f4f4f1;stroke:#333333;stroke-width:0.1;stroke-linejoin:round"
       id="polygon152"
       transform="matrix(10.263544,0,0,10.170324,110.12766,188.68077)" />
    <polygon
       points="0,3.4641016 -1,1.7320508 1,1.7320508 "
       style="fill:#f4f4f1;stroke:#333333;stroke-width:0.1;stroke-linejoin:round"
       id="polygon162"
       transform="matrix(10.263544,0,0,10.170324,110.12766,188.68077)" />
    <polygon
       points="-1,1.7320508 0,3.4641016 -2,3.4641016 "
       style="fill:#f4f4f1;stroke:#333333;stroke-width:0.1;stroke-linejoin:round"
       id="polygon172"
       transform="matrix(10.263544,0,0,10.170324,110.12766,188.68077)" />
    <polygon
       points="1,1.7320508 0,0 2,0 "
       style="fill:#f4f4f1;stroke:#333333;stroke-width:0.1;stroke-linejoin:round"
       id="polygon182"
       transform="matrix(10.263544,0,0,10.170324,110.12766,188.68077)" />
    <polygon
       points="0,0 1,1.7320508 -1,1.7320508 "
       style="fill:#f4f4f1;stroke:#333333;stroke-width:0.1;stroke-linejoin:round"
       id="polygon192"
       transform="matrix(10.263544,0,0,10.170324,110.12766,188.68077)" />
    <polygon
       points="2,0 1,-1.7320508 3,-1.7320508 "
       style="fill:#f4f4f1;stroke:#333333;stroke-width:0.1;stroke-linejoin:round"
       id="polygon202"
       transform="matrix(10.263544,0,0,10.170324,110.12766,188.68077)" />
    <polygon
       points="1,-1.7320508 2,0 0,0 "
       style="fill:#f4f4f1;stroke:#333333;stroke-width:0.1;stroke-linejoin:round"
       id="polygon212"
       transform="matrix(10.263544,0,0,10.170324,110.12766,188.68077)" />
    <polygon
       points="2,-3.4641016 3,-1.7320508 1,-1.7320508 "
       style="fill:#f4f4f1;stroke:#333333;stroke-width:0.1;stroke-linejoin:round"
       id="polygon222"
       transform="matrix(10.263544,0,0,10.170324,110.12766,188.68077)" />
    <polygon
       points="2,3.4641016 1,1.7320508 3,1.7320508 "
       style="fill:#f4f4f1;stroke:#333333;stroke-width:0.1;stroke-linejoin:round"
       id="polygon232"
       transform="matrix(10.263544,0,0,10.170324,110.12766,188.68077)" />
    <polygon
       points="1,1.7320508 2,3.4641016 0,3.4641016 "
       style="fill:#f4f4f1;stroke:#333333;stroke-width:0.1;stroke-linejoin:round"
       id="polygon242"
       transform="matrix(10.263544,0,0,10.170324,110.12766,188.68077)" />
    <polygon
       points="3,1.7320508 2,0 4,0 "
       style="fill:#f4f4f1;stroke:#333333;stroke-width:0.1;stroke-linejoin:round"
       id="polygon252"
       transform="matrix(10.263544,0,0,10.170324,110.12766,188.68077)" />
    <polygon
       points="2,0 3,1.7320508 1,1.7320508 "
       style="fill:#f4f4f1;stroke:#333333;stroke-width:0.1;stroke-linejoin:round"
       id="polygon262"
       transform="matrix(10.263544,0,0,10.170324,110.12766,188.68077)" />
    <polygon
       points="3,-1.7320508 4,0 2,0 "
       style="fill:#f4f4f1;stroke:#333333;stroke-width:0.1;stroke-linejoin:round"
       id="polygon272"
       transform="matrix(10.263544,0,0,10.170324,110.12766,188.68077)" />
    <polygon
       points="3,1.7320508 4,3.4641016 2,3.4641016 "
       style="fill:#f4f4f1;stroke:#333333;stroke-width:0.1;stroke-linejoin:round"
       id="polygon282"
       transform="matrix(10.263544,0,0,10.170324,110.12766,188.68077)" />
    <polygon
       points="4,0 5,1.7320508 3,1.7320508 "
       style="fill:#f4f4f1;stroke:#333333;stroke-width:0.1;stroke-linejoin:round"
       id="polygon292"
       transform="matrix(10.263544,0,0,10.170324,110.12766,188.68077)" />
    <polygon
       points="1,-1.7320508 0,0 -1,-1.7320508 "
       style="fill:#f4f4f1;stroke:#333333;stroke-width:0.1;stroke-linejoin:round"
       id="polygon112-6"
       transform="matrix(10.263544,0,0,10.170324,110.12766,153.44973)" />
    <polygon
       points="3,1.7320508 2,3.4641016 1,1.7320508 "
       style="fill:#f4f4f1;stroke:#333333;stroke-width:0.1;stroke-linejoin:round"
       id="polygon232-0"
       transform="matrix(10.263544,0,0,10.170324,130.65475,188.68077)" />
    <polygon
       points="2,3.4641016 3,1.7320508 4,3.4641016 "
       style="fill:#f4f4f1;stroke:#333333;stroke-width:0.1;stroke-linejoin:round"
       id="polygon282-4"
       transform="matrix(10.263544,0,0,10.170324,130.65475,188.68077)" />
    <polygon
       points="3,1.7320508 2,3.4641016 1,1.7320508 "
       style="fill:#f4f4f1;stroke:#333333;stroke-width:0.1;stroke-linejoin:round"
       id="polygon232-5"
       transform="matrix(10.263544,0,0,10.170324,140.91829,171.06525)" />
    <polygon
       points="3,1.7320508 2,3.4641016 1,1.7320508 "
       style="fill:#f4f4f1;stroke:#333333;stroke-width:0.1;stroke-linejoin:round"
       id="polygon232-2"
       transform="matrix(10.263544,0,0,10.170324,130.65475,153.44973)" />
    <polygon
       points="2,3.4641016 3,1.7320508 4,3.4641016 "
       style="fill:#f4f4f1;stroke:#333333;stroke-width:0.1;stroke-linejoin:round"
       id="polygon282-44"
       transform="matrix(10.263544,0,0,10.170324,130.65475,153.44973)" />
    <polygon
       points="3,1.7320508 2,3.4641016 1,1.7320508 "
       style="fill:#f4f4f1;stroke:#333333;stroke-width:0.1;stroke-linejoin:round"
       id="polygon232-9"
       transform="matrix(10.263544,0,0,10.170324,120.39121,135.83421)" />
    <polygon
       points="2,3.4641016 3,1.7320508 4,3.4641016 "
       style="fill:#f4f4f1;stroke:#333333;stroke-width:0.1;stroke-linejoin:round"
       id="polygon282-1"
       transform="matrix(10.263544,0,0,10.170324,120.39121,135.83421)" />
    <polygon
       points="3,1.7320508 2,3.4641016 1,1.7320508 "
       style="fill:#f4f4f1;stroke:#333333;stroke-width:0.1;stroke-linejoin:round"
       id="polygon232-07"
       transform="matrix(10.263544,0,0,10.170324,140.91829,135.83421)" />
    <polygon
       points="1,1.7320508 3,1.7320508 2,3.4641016 "
       style="fill:#f4f4f1;stroke:#333333;stroke-width:0.1;stroke-linejoin:round"
       id="polygon232-9-8"
       transform="matrix(10.263544,0,0,10.170324,110.12766,118.21869)" />
    <polygon
       points="4,3.4641016 2,3.4641016 3,1.7320508 "
       style="fill:#f4f4f1;stroke:#333333;stroke-width:0.1;stroke-linejoin:round"
       id="polygon282-1-8"
       transform="matrix(10.263544,0,0,10.170324,110.12766,118.21869)" />
    <polygon
       points="1,1.7320508 3,1.7320508 2,3.4641016 "
       style="fill:#f4f4f1;stroke:#333333;stroke-width:0.1;stroke-linejoin:round"
       id="polygon232-07-0"
       transform="matrix(10.263544,0,0,10.170324,130.65473,118.21869)" />
    <polygon
       points="4,3.4641016 2,3.4641016 3,1.7320508 "
       style="fill:#f4f4f1;stroke:#333333;stroke-width:0.1;stroke-linejoin:round"
       id="polygon282-0-6"
       transform="matrix(10.263544,0,0,10.170324,130.65473,118.21869)" />
    <polygon
       points="-2,-3.4641016 -1,-5.1961524 0,-3.4641016 "
       style="fill:#f4f4f1;stroke:#333333;stroke-width:0.1;stroke-linejoin:round"
       id="polygon62-3"
       transform="matrix(10.263544,0,0,10.170324,89.600572,188.68077)" />
    <polygon
       points="-1,-1.7320508 1,-1.7320508 0,0 "
       style="fill:#f4f4f1;stroke:#333333;stroke-width:0.1;stroke-linejoin:round"
       id="polygon112-6-4"
       transform="matrix(10.263544,0,0,10.170324,89.600572,153.44973)" />
    <polygon
       points="-2,-3.4641016 -1,-5.1961524 0,-3.4641016 "
       style="fill:#f4f4f1;stroke:#333333;stroke-width:0.1;stroke-linejoin:round"
       id="polygon62-5"
       transform="matrix(10.263544,0,0,10.170324,79.337028,206.29629)" />
    <polygon
       points="-1,-1.7320508 1,-1.7320508 0,0 "
       style="fill:#f4f4f1;stroke:#333333;stroke-width:0.1;stroke-linejoin:round"
       id="polygon112-6-1"
       transform="matrix(10.263544,0,0,10.170324,79.337028,171.06525)" />
    <polygon
       points="-2,-3.4641016 -1,-5.1961524 0,-3.4641016 "
       style="fill:#f4f4f1;stroke:#333333;stroke-width:0.1;stroke-linejoin:round"
       id="polygon62-2"
       transform="matrix(10.263544,0,0,10.170324,69.073484,223.91181)" />
    <polygon
       points="-1,-1.7320508 1,-1.7320508 0,0 "
       style="fill:#f4f4f1;stroke:#333333;stroke-width:0.1;stroke-linejoin:round"
       id="polygon112-6-3"
       transform="matrix(10.263544,0,0,10.170324,69.073484,188.68077)" />
    <polygon
       points="-1,-1.7320508 1,-1.7320508 0,0 "
       style="fill:#f4f4f1;stroke:#333333;stroke-width:0.1;stroke-linejoin:round"
       id="polygon112-6-30"
       transform="matrix(10.263544,0,0,10.170324,58.80994,206.29629)" />
    <polygon
       points="-2,-3.4641016 -1,-5.1961524 0,-3.4641016 "
       style="fill:#f4f4f1;stroke:#333333;stroke-width:0.1;stroke-linejoin:round"
       id="polygon62-1"
       transform="matrix(10.263544,0,0,10.170324,69.073484,259.14284)" />
    <polygon
       points="-1,-1.7320508 1,-1.7320508 0,0 "
       style="fill:#f4f4f1;stroke:#333333;stroke-width:0.1;stroke-linejoin:round"
       id="polygon112-6-8"
       transform="matrix(10.263544,0,0,10.170324,69.073484,223.9118)" />
    <polygon
       points="1,-1.7320508 0,0 -1,-1.7320508 "
       style="fill:#f4f4f1;stroke:#333333;stroke-width:0.1;stroke-linejoin:round"
       id="polygon112-6-88"
       transform="matrix(10.263544,0,0,10.170324,58.80994,171.06525)" />
    <polygon
       points="-2,-3.4641016 -1,-5.1961524 0,-3.4641016 "
       style="fill:#f4f4f1;stroke:#333333;stroke-width:0.1;stroke-linejoin:round"
       id="polygon62-38"
       transform="matrix(10.263544,0,0,10.170324,69.073484,188.68078)" />
    <polygon
       points="-1,-1.7320508 1,-1.7320508 0,0 "
       style="fill:#f4f4f1;stroke:#333333;stroke-width:0.1;stroke-linejoin:round"
       id="polygon112-6-5"
       transform="matrix(10.263544,0,0,10.170324,69.073484,153.44974)" />
  </g>
</svg>
